<?xml version="1.0" standalone="no"?>
<!DOCTYPE svg PUBLIC "-//W3C//DTD SVG 20010904//EN"
 "http://www.w3.org/TR/2001/REC-SVG-20010904/DTD/svg10.dtd">
<svg version="1.0" xmlns="http://www.w3.org/2000/svg"
 width="1120.000000pt" height="1072.000000pt" viewBox="0 0 1120.000000 1072.000000"
 preserveAspectRatio="xMidYMid meet">

<g transform="translate(0.000000,1072.000000) scale(0.100000,-0.100000)"
fill="#000000" stroke="none">
<path d="M5192 10510 c-242 -18 -652 -98 -947 -186 -133 -40 -345 -122 -487
-188 -544 -252 -1164 -810 -1499 -1348 -184 -296 -257 -470 -349 -838 -48
-188 -76 -411 -85 -660 -3 -102 -9 -195 -12 -208 -4 -16 -27 -33 -82 -60 -42
-20 -105 -59 -141 -86 -36 -28 -109 -83 -163 -124 -119 -91 -265 -228 -339
-319 -50 -61 -154 -208 -289 -408 -84 -125 -265 -489 -343 -690 -15 -38 -45
-110 -68 -159 -124 -273 -182 -610 -148 -851 13 -88 79 -284 132 -390 66 -132
166 -274 263 -371 154 -155 394 -296 560 -328 144 -28 130 -14 165 -166 6 -30
39 -145 72 -255 32 -110 79 -283 104 -385 78 -330 93 -374 153 -467 71 -111
186 -164 351 -164 83 0 170 23 343 92 178 71 329 120 542 174 116 30 233 61
260 69 l50 16 -25 -21 c-14 -12 -45 -31 -70 -44 -25 -13 -77 -49 -117 -81 -39
-33 -113 -84 -165 -114 -111 -66 -268 -216 -342 -328 -51 -77 -96 -200 -96
-262 0 -47 -17 -105 -35 -120 -21 -18 -202 -28 -707 -40 -554 -13 -615 -20
-688 -86 -49 -44 -68 -107 -51 -165 16 -53 85 -124 136 -139 73 -21 389 -25
1305 -18 498 4 1360 9 1915 12 556 3 1696 9 2535 13 839 4 1795 6 2125 5 384
-3 639 0 709 7 121 12 183 35 215 80 60 84 19 215 -78 255 -59 23 -216 35
-606 45 -193 6 -358 13 -368 16 -9 4 -19 22 -22 43 -14 94 -49 205 -91 288
-55 109 -183 285 -272 373 -120 118 -325 235 -572 326 -166 61 -170 63 -170
78 0 7 50 55 112 107 172 146 193 166 338 313 184 190 316 369 419 575 78 155
190 432 241 594 28 90 55 172 59 183 8 19 16 20 167 17 348 -7 911 103 1120
218 244 136 421 279 467 377 19 42 22 64 21 168 -1 108 -5 129 -34 210 -59
167 -214 476 -317 635 -109 168 -366 512 -457 612 -194 214 -401 398 -687 611
l-199 148 0 155 c0 85 -5 188 -10 227 -6 40 -15 106 -21 147 -25 179 -105 493
-162 635 -253 628 -575 1062 -1097 1481 -307 245 -575 395 -982 548 -284 106
-568 173 -879 206 -137 14 -475 20 -607 10z m688 -474 c325 -46 636 -145 842
-270 106 -64 140 -95 157 -145 14 -44 14 -47 -5 -66 -26 -26 -89 -11 -295 71
-127 51 -288 97 -424 123 -352 65 -366 66 -740 65 -263 0 -370 -4 -470 -18
-206 -27 -503 -106 -870 -232 -88 -30 -168 -54 -178 -54 -17 0 -37 36 -37 67
0 28 82 96 180 150 181 98 206 110 312 151 193 76 473 145 688 172 120 14 705
4 840 -14z m-1820 -1130 c158 -37 305 -102 452 -202 245 -167 385 -352 483
-641 22 -65 75 -277 75 -301 0 -29 -27 -48 -127 -86 -218 -83 -348 -179 -415
-307 -20 -38 -23 -58 -23 -149 0 -124 17 -168 110 -297 156 -213 466 -459 687
-545 123 -48 278 -15 444 95 112 73 190 144 308 277 135 154 223 272 257 347
39 84 41 186 4 268 -56 127 -268 276 -520 364 -32 12 -63 26 -67 33 -20 28 14
207 62 327 68 173 151 301 284 436 104 105 192 172 290 222 82 41 277 115 361
137 364 93 780 0 1078 -239 267 -216 414 -454 506 -820 32 -129 51 -346 61
-720 13 -438 5 -2505 -9 -2630 -14 -122 -32 -201 -76 -325 -20 -58 -42 -128
-50 -155 -30 -110 -88 -274 -125 -350 -139 -288 -409 -650 -618 -828 -164
-140 -306 -250 -383 -298 -307 -189 -798 -367 -1209 -438 -235 -41 -692 -54
-890 -26 -57 8 -172 33 -255 54 -82 22 -199 49 -260 61 -137 28 -377 96 -430
122 -53 27 -95 57 -95 68 0 20 89 53 263 95 228 57 307 93 398 184 90 91 104
124 103 236 -1 95 2 85 -184 730 -27 94 -65 231 -84 305 -78 300 -84 322 -156
550 -57 179 -139 459 -195 665 -121 446 -222 769 -272 872 -36 73 -127 167
-190 195 -84 38 -213 26 -462 -42 -41 -11 -101 -20 -133 -20 l-59 0 -94 98
c-133 139 -290 231 -460 271 -91 22 -86 -2 -80 380 9 515 24 665 99 996 21 90
41 141 112 285 111 223 139 263 265 385 139 135 223 196 354 259 136 67 221
93 350 111 127 18 422 12 515 -9z m1600 -1597 c142 -36 233 -75 238 -102 2
-11 -9 -32 -25 -49 -34 -37 -289 -229 -351 -266 -61 -35 -120 -34 -187 3 -159
88 -415 285 -415 319 0 28 146 74 395 125 80 16 208 5 345 -30z m3510 -1042
c321 -333 439 -480 628 -782 45 -71 110 -170 146 -220 65 -90 141 -228 151
-276 10 -43 -21 -66 -188 -133 -304 -124 -432 -154 -698 -163 -96 -3 -191 -3
-210 1 l-35 6 4 863 c2 474 5 868 7 875 3 6 8 12 12 12 4 0 87 -82 183 -183z
m-7363 148 c2 -11 -21 -53 -50 -92 -28 -40 -100 -139 -158 -220 -123 -171
-173 -264 -190 -354 -6 -35 -13 -69 -14 -75 -2 -5 -22 -16 -46 -23 -24 -8 -78
-24 -119 -37 -41 -13 -83 -24 -93 -24 -70 0 86 313 295 590 69 91 191 210 245
239 51 28 127 25 130 -4z m597 -332 c15 -8 57 -35 93 -59 35 -24 92 -52 125
-62 76 -21 93 -45 149 -207 22 -66 47 -132 55 -146 11 -21 11 -29 1 -37 -16
-14 -186 -68 -272 -86 -38 -9 -86 -20 -105 -25 -553 -152 -506 -146 -541 -63
-23 54 -89 295 -89 325 0 14 14 36 34 53 19 17 50 55 69 85 42 66 139 159 192
186 118 59 218 72 289 36z m1087 -340 c31 -81 159 -519 178 -608 27 -124 149
-563 240 -861 38 -126 82 -276 96 -334 33 -130 90 -335 116 -413 17 -55 27
-92 64 -249 8 -35 26 -112 40 -172 14 -59 25 -122 23 -140 -5 -50 -13 -53
-428 -152 -214 -52 -309 -77 -470 -125 -91 -28 -210 -61 -265 -75 -55 -13
-120 -31 -145 -39 -269 -87 -377 -119 -505 -150 -82 -19 -186 -46 -231 -60
-89 -28 -127 -31 -142 -12 -12 14 -126 335 -149 417 -46 167 -92 367 -98 422
-8 78 -1 88 83 122 80 32 189 104 237 157 20 23 51 71 69 108 27 57 31 79 34
163 3 80 0 110 -18 165 -58 181 -170 340 -314 447 -39 30 -100 79 -136 111
-93 82 -132 106 -254 161 -78 35 -117 58 -138 84 -16 19 -58 100 -94 180 -35
80 -76 168 -90 196 -15 28 -24 56 -20 62 3 6 35 20 71 32 36 12 108 44 160 71
53 27 102 49 109 49 21 0 37 -25 66 -108 42 -117 57 -148 90 -186 81 -92 200
-86 605 34 145 42 273 75 415 105 300 63 362 79 416 111 114 67 141 158 90
300 -31 84 -33 130 -8 142 9 5 51 17 92 27 41 10 89 24 105 31 17 7 45 13 63
14 26 0 34 -5 43 -27z m-2733 -697 c6 -13 28 -81 50 -152 50 -163 105 -289
176 -409 46 -76 70 -104 132 -155 118 -94 214 -156 347 -222 219 -108 356
-215 372 -290 12 -53 -4 -59 -166 -59 -138 0 -148 1 -252 35 -124 41 -296 121
-377 176 -117 79 -207 199 -299 395 -100 213 -110 319 -51 563 19 81 38 142
45 142 7 0 17 -11 23 -24z m6697 -3141 c105 -25 246 -75 385 -137 88 -40 213
-130 312 -226 106 -102 183 -204 174 -228 -5 -12 -92 -14 -583 -16 -1281 -6
-1556 3 -1609 52 -45 43 -101 208 -76 224 5 3 75 16 158 31 82 14 191 37 242
50 80 21 326 107 387 135 67 31 241 95 300 110 85 23 227 25 310 5z m-3615
-70 c162 -65 546 -192 665 -220 108 -24 148 -31 266 -45 41 -5 88 -14 103 -21
33 -15 32 -36 -4 -133 -37 -96 -47 -103 -181 -110 -553 -29 -981 -31 -1359 -7
-85 5 -224 13 -308 17 -115 5 -155 11 -159 21 -7 18 64 135 131 213 76 90 178
161 331 232 274 127 321 131 515 53z m1783 -437 c-3 -79 -10 -146 -15 -149 -5
-3 -71 -9 -146 -12 -75 -4 -152 -9 -170 -13 l-34 -7 4 139 c2 77 8 145 12 152
4 7 33 12 74 13 37 1 94 5 127 9 33 4 81 8 107 9 l46 1 -5 -142z"/>
<path d="M3594 8131 c-82 -20 -138 -47 -209 -101 -159 -120 -270 -282 -295
-432 -32 -192 23 -277 177 -278 81 0 103 19 168 144 27 53 68 115 90 138 80
82 225 120 319 84 58 -22 141 -105 189 -186 55 -95 69 -110 112 -120 101 -23
196 34 208 125 6 42 -4 148 -20 214 -34 141 -160 286 -311 357 -149 71 -290
89 -428 55z"/>
<path d="M6970 8135 c-148 -25 -256 -85 -377 -207 -99 -100 -143 -204 -143
-341 0 -151 97 -244 215 -205 34 11 47 25 91 97 99 161 162 206 289 206 69 0
86 -4 127 -27 51 -31 103 -86 133 -145 86 -167 105 -183 213 -183 55 0 76 5
103 23 95 64 113 189 51 347 -54 137 -129 234 -254 326 -89 65 -149 93 -235
110 -87 16 -112 16 -213 -1z"/>
<path d="M3328 5110 c-66 -19 -98 -52 -206 -213 -60 -89 -139 -213 -176 -274
-73 -122 -111 -173 -130 -173 -6 0 -52 26 -101 59 -144 93 -196 103 -261 47
-25 -21 -45 -49 -52 -74 -15 -49 -15 -124 -1 -154 20 -42 293 -259 372 -296
59 -28 129 -29 171 -3 35 22 119 130 161 205 16 28 41 72 56 98 16 27 29 51
29 55 0 18 149 252 209 328 126 162 146 236 87 325 -41 62 -98 87 -158 70z"/>
<path d="M3387 3916 c-98 -36 -135 -76 -263 -291 -92 -154 -165 -265 -188
-284 -13 -11 -26 -4 -93 50 -112 91 -147 109 -214 109 -96 0 -149 -50 -149
-143 0 -83 72 -187 212 -307 136 -117 192 -150 250 -150 28 0 64 8 86 19 56
29 126 109 161 187 49 104 116 215 218 359 141 198 157 228 161 306 4 59 2 68
-24 98 -27 32 -79 62 -106 61 -7 -1 -30 -7 -51 -14z"/>
</g>
</svg>
