<svg width="52" height="52" viewBox="0 0 52 52" fill="none" xmlns="http://www.w3.org/2000/svg">
<g clip-path="url(#clip0_9_88)">
<path d="M35.75 22.75C35.75 28.145 31.395 32.5 26 32.5C20.605 32.5 16.25 28.145 16.25 22.75C16.25 17.355 20.605 13 26 13C31.395 13 35.75 17.355 35.75 22.75Z" fill="black"/>
<path fill-rule="evenodd" clip-rule="evenodd" d="M52 26C52 40.365 40.365 52 26 52C11.635 52 0 40.365 0 26C0 11.635 11.635 0 26 0C40.365 0 52 11.635 52 26ZM13 44.6875C13.52 43.823 18.5575 35.75 25.9675 35.75C33.345 35.75 38.415 43.8425 38.935 44.6875C41.9571 42.5977 44.4263 39.8051 46.1303 36.5499C47.8344 33.2947 48.7222 29.6743 48.7175 26C48.7175 13.4225 38.545 3.25 25.9675 3.25C13.39 3.25 3.2175 13.4225 3.2175 26C3.2175 33.735 7.085 40.5925 13 44.6875Z" fill="black"/>
</g>
<defs>
<clipPath id="clip0_9_88">
<rect width="52" height="52" fill="white"/>
</clipPath>
</defs>
</svg>
